# xmcd
#
# Track frame offsets:
#  150
#  16651
#  29365
#  48629
#  65107
#  81328
#  95176
#  115930
#  134868
#  156006
#  169660
#  187256
#  202991
#  218832
#  232402
#  250523
#  267966
#
# Disc length: 3814 seconds
#
# Revision: 0
# Processed by: cddbd v1.5.1PL2 Copyright (c) Steve Scherf et al.
# Submitted via: Collectorz.com Music Collector 6.9
#
DISCID=010ee411
DTITLE=Dion Celine - On ne change pas [CD1)
DYEAR=2005
DGENRE=
TTITLE0=Celine Dion - Je Ne Vous Oublie Pas (Inédit)
TTITLE1=Celine Dion - Tous Les Secrets (Inédit) (By
TTITLE2=Celine Dion - Pour Que Tu M'aimes Encore (By
TTITLE3=Celine Dion - S'il Suffisait D'aimer (By Tit
TTITLE4=Celine Dion - Sous Le Vent (en duo avec Garo
TTITLE5=Celine Dion - Tout L'or Des Hommes (By Tita)
TTITLE6=Celine Dion - Je Sais Pas (By Tita)
TTITLE7=Celine Dion - On Ne Change Pas (By Tita)
TTITLE8=Celine Dion - Dans Un Autre Monde (By Tita)
TTITLE9=Celine Dion - Ziggy (Un Garçon Pas Comme Les
TTITLE10=Celine Dion - L'amour Existe Encore (By Tita
TTITLE11=Celine Dion - J'irai Oú Tu Iras (en duo avec
TTITLE12=Celine Dion - Et Je T'aime Encore (By Tita)
TTITLE13=Celine Dion - Vole (By Tita)
TTITLE14=Celine Dion - Je Lui Dirai (By Tita)
TTITLE15=Celine Dion - Quand On N'a Que L'amour (Live
TTITLE16=Celine Dion - I Believe In You (en duo avec
EXTD=
EXTT0=
EXTT1=
EXTT2=
EXTT3=
EXTT4=
EXTT5=
EXTT6=
EXTT7=
EXTT8=
EXTT9=
EXTT10=
EXTT11=
EXTT12=
EXTT13=
EXTT14=
EXTT15=
EXTT16=
PLAYORDER=
